<?xml version="1.0"?>
<svg version="1.1" id="Layer_1" xmlns="http://www.w3.org/2000/svg" x="0" y="0" viewBox="0 0 100 100" xml:space="preserve"><path d="M79 90H21c-6.1 0-11-4.9-11-11V21c0-6.1 4.9-11 11-11h58c6.1 0 11 4.9 11 11v58c0 6.1-4.9 11-11 11z" fill="#333"/><g><g><path d="M71.1 37.2H28.9c-2.2 0-3.9-1.9-3.9-4.3s1.7-4.3 3.9-4.3h42.2c2.2 0 3.9 1.9 3.9 4.3s-1.7 4.3-3.9 4.3z" fill="#e0e0e0"/></g><g><path d="M71.1 54.3H28.9c-2.2 0-3.9-1.9-3.9-4.3s1.7-4.3 3.9-4.3h42.2c2.2 0 3.9 1.9 3.9 4.3s-1.7 4.3-3.9 4.3z" fill="#e0e0e0"/></g><g><path d="M71.1 71.3H28.9c-2.2 0-3.9-1.9-3.9-4.3s1.7-4.3 3.9-4.3h42.2c2.2 0 3.9 1.9 3.9 4.3s-1.7 4.3-3.9 4.3z" fill="#e0e0e0"/></g></g><metadata xmlns:d="https://loading.io/stock/"><d:name>navbar</d:name><d:tags>menu,hamburger,dropdown,responsive,mobile,navbar,web application</d:tags><d:license>free</d:license><d:slug>obqvdq</d:slug></metadata></svg>